Coordinates
version=1
nRows=22
nColumns=33
inDegrees=yes

Units are S.I. units (second, meters, Newtons, ...)
Angles are in degrees.

endheader
time	ground_thorax_rot_x	ground_thorax_rot_y	ground_thorax_rot_z	ground_thorax_tx	ground_thorax_ty	ground_thorax_tz	clav_prot_r	clav_elev_r	scapula_abduction_r	scapula_elevation_r	scapula_upward_rot_r	scapula_winging_r	shoulder_elv_r	plane_of_elev_r	axial_rot_r	elbow_flexion_r	pro_sup_r	wrist_flex_r	wrist_dev_r	clav_prot_l	clav_elev_l	scapula_abduction_l	scapula_elevation_l	scapula_upward_rot_l	scapula_winging_l	shoulder_elv_l	plane_of_elev_l	axial_rot_l	elbow_flexion_l	pro_sup_l	wrist_flex_l	wrist_dev_l	
11.4700	30.838622	31.267504	36.905586	-34.439719	782.079567	-36.111105	12.116160	35.047865	24.828992	45.000000	-45.000000	-3685.690436	-2627.445334	160.163594	27.253308	1800.349851	165.830775	12.875513	14.469835	-10.941037	-45.000000	-35.530013	45.000000	-45.000000	-4936.329498	-644.329177	23.079664	18.123216	1069.586370	43.531375	12.545388	-15.915516	
11.4800	31.004629	30.964548	36.605670	-38.170185	783.703596	-36.070932	12.036758	35.044398	24.704142	45.000000	-45.000000	-3685.856456	-2627.297087	160.170466	27.509290	1800.291104	167.178510	12.681153	14.673304	-10.798808	-45.000000	-35.623479	45.000000	-45.000000	-4936.183785	-644.232273	23.123296	18.316075	1069.537340	43.231460	12.616166	-15.940085	
11.4900	31.155350	30.694164	36.299844	-41.681976	785.496299	-35.990557	11.983545	35.038804	24.610374	45.000000	-45.000000	-3686.019775	-2627.175513	160.155644	27.582610	1800.249986	168.082931	12.592517	14.835759	-10.649953	-45.000000	-35.729784	45.000000	-45.000000	-4936.038166	-644.133872	23.179515	18.524035	1069.497242	42.955371	12.685444	-15.971827	
11.5000	31.290052	30.447309	35.998482	-45.022334	787.423549	-35.885559	11.979129	35.008459	24.547439	45.000000	-45.000000	-3686.191175	-2627.079721	160.132460	27.571495	1800.209482	168.607359	12.558396	14.961984	-10.508358	-45.000000	-35.853505	45.000000	-45.000000	-4935.896728	-644.031268	23.233918	18.754750	1069.468513	42.698897	12.753899	-16.013759	
11.5100	31.412638	30.216037	35.705900	-48.226450	789.458869	-35.767372	11.993620	34.968512	24.505829	45.000000	-45.000000	-3686.367642	-2626.996894	160.105761	27.516072	1800.169627	168.835227	12.551124	15.060595	-10.369807	-45.000000	-35.987255	45.000000	-45.000000	-4935.757546	-643.925580	23.288478	18.994190	1069.448127	42.463395	12.822983	-16.066372	
11.5200	31.524210	29.993714	35.421054	-51.316678	791.583584	-35.643475	12.021684	34.920650	24.476868	45.000000	-45.000000	-3686.546045	-2626.924062	160.076940	27.433677	1800.128181	168.841689	12.556804	15.140713	-10.233763	-45.000000	-36.132050	45.000000	-45.000000	-4935.621818	-643.816727	23.342005	19.247183	1069.435995	42.250479	12.891787	-16.130261	
11.5300	31.629613	29.774576	35.141081	-54.305281	793.784537	-35.518922	12.038852	34.879990	24.458666	45.000000	-45.000000	-3686.724704	-2626.853703	160.045801	27.335127	1800.085852	168.684292	12.572803	15.203352	-10.101634	-45.000000	-36.274901	45.000000	-45.000000	-4935.492204	-643.701218	23.399139	19.509996	1069.429847	42.063294	12.959043	-16.204431	
11.5400	31.727267	29.558453	34.866975	-57.196544	796.052758	-35.396933	12.060386	34.837351	24.449582	45.000000	-45.000000	-3686.905448	-2626.788138	160.011957	27.223805	1800.040449	168.399238	12.596117	15.253419	-9.971893	-45.000000	-36.421084	45.000000	-45.000000	-4935.365469	-643.583334	23.458922	19.776030	1069.434169	41.900613	13.024288	-16.292163	
11.5500	31.818191	29.344551	34.600271	-59.992190	798.380574	-35.280072	12.083202	34.792845	24.450027	45.000000	-45.000000	-3687.087425	-2626.724521	159.975872	27.097457	1799.992632	168.009544	12.625301	15.291318	-9.842540	-45.000000	-36.569647	45.000000	-45.000000	-4935.240588	-643.464997	23.521295	20.038412	1069.447933	41.759707	13.087724	-16.394211	
11.5600	31.902622	29.131699	34.340757	-62.693471	800.760412	-35.170845	12.106916	34.747178	24.458193	45.000000	-45.000000	-3687.270264	-2626.664091	159.935683	26.952099	1799.941481	167.534040	12.657704	15.319012	-9.713861	-45.000000	-36.720005	45.000000	-45.000000	-4935.117528	-643.345361	23.585512	20.298076	1069.470427	41.635865	13.147910	-16.509461	
11.5700	31.980813	28.919260	34.089561	-65.302982	803.184204	-35.072075	12.129498	34.701624	24.473381	45.000000	-45.000000	-3687.451517	-2626.605973	159.892774	26.786878	1799.887408	166.991251	12.690141	15.337380	-9.583043	-45.000000	-36.873143	45.000000	-45.000000	-4934.996651	-643.225176	23.650603	20.554676	1069.498294	41.522879	13.204925	-16.636361	
11.5800	32.053130	28.708064	33.846348	-67.822679	805.644546	-34.986527	12.151393	34.655860	24.493082	45.000000	-45.000000	-3687.632018	-2626.551236	159.845249	26.603070	1799.829799	166.396544	12.719677	15.348363	-9.449670	-45.000000	-37.028928	45.000000	-45.000000	-4934.877680	-643.103864	23.716947	20.806965	1069.529768	41.413236	13.258602	-16.772948	
11.5900	32.120994	28.499741	33.610968	-70.254483	808.134632	-34.916969	12.173214	34.610872	24.516884	45.000000	-45.000000	-3687.811079	-2626.498287	159.794275	26.400292	1799.770199	165.759995	12.744425	15.352127	-9.312622	-45.000000	-37.187236	45.000000	-45.000000	-4934.761872	-642.983043	23.784207	21.055187	1069.562387	41.298362	13.309730	-16.917130	
11.6000	32.184942	28.295522	33.382059	-72.600126	810.648236	-34.866117	12.194858	34.567392	24.543069	45.000000	-45.000000	-3687.989193	-2626.447973	159.738545	26.181323	1799.708455	165.089254	12.763396	15.349724	-9.173360	-45.000000	-37.346130	45.000000	-45.000000	-4934.649360	-642.861646	23.853398	21.296843	1069.595999	41.169456	13.358118	-17.066059	
11.6100	32.245568	28.096586	33.160405	-74.861174	813.179502	-34.836538	12.217171	34.523130	24.573742	45.000000	-45.000000	-3688.166577	-2626.399556	159.679972	25.948738	1799.645041	164.387275	12.776808	15.340781	-9.029886	-45.000000	-37.506757	45.000000	-45.000000	-4934.538208	-642.741899	23.923183	21.529790	1069.630052	41.018013	13.405386	-17.218262	
11.6200	32.304211	27.903158	32.944502	-77.038958	815.722886	-34.830401	12.239648	34.479099	24.610167	45.000000	-45.000000	-3688.344164	-2626.355128	159.618196	25.705998	1799.578853	163.657786	12.785440	15.325858	-8.886442	-45.000000	-37.666108	45.000000	-45.000000	-4934.428251	-642.623377	23.993546	21.749325	1069.665085	40.838148	13.451974	-17.371774	
11.6300	32.361197	27.714823	32.735344	-79.134215	818.272896	-34.849213	12.261556	34.432714	24.654443	45.000000	-45.000000	-3688.519010	-2626.313852	159.556417	25.455372	1799.510815	162.903090	12.789656	15.304799	-8.737765	-45.000000	-37.826423	45.000000	-45.000000	-4934.316929	-642.508307	24.063355	21.952773	1069.701113	40.626717	13.499290	-17.525733	
11.6400	32.419978	27.529732	32.530066	-81.147298	820.824175	-34.893364	12.284358	34.392721	24.712737	45.000000	-45.000000	-3688.697654	-2626.283204	159.492660	25.196937	1799.439790	162.130899	12.791747	15.278595	-8.600557	-45.000000	-37.983658	45.000000	-45.000000	-4934.208610	-642.395255	24.127392	22.139199	1069.741665	40.386292	13.545594	-17.680905	
11.6500	32.481405	27.344512	32.327850	-83.077533	823.370493	-34.962253	12.304770	34.357243	24.787635	45.000000	-45.000000	-3688.874799	-2626.261357	159.430568	24.930080	1799.366921	161.350340	12.792828	15.247334	-8.467078	-45.000000	-38.139564	45.000000	-45.000000	-4934.101585	-642.287501	24.185107	22.308592	1069.788993	40.124280	13.590338	-17.838741	
11.6600	32.540427	27.166985	32.133174	-84.923238	825.904190	-35.054412	12.319566	34.320539	24.861692	45.000000	-45.000000	-3689.042600	-2626.240541	159.369900	24.662305	1799.290562	160.568264	12.792683	15.212893	-8.321055	-45.000000	-38.300003	45.000000	-45.000000	-4933.992788	-642.186084	24.242595	22.457402	1069.839960	39.852107	13.633033	-17.996260	
11.6700	32.595871	26.996164	31.947610	-86.680638	828.414635	-35.168331	12.327772	34.276817	24.928560	45.000000	-45.000000	-3689.192794	-2626.212646	159.312445	24.395115	1799.210378	159.793287	12.791775	15.176583	-8.153995	-45.000000	-38.463113	45.000000	-45.000000	-4933.880380	-642.092494	24.304732	22.585542	1069.894014	39.583329	13.672996	-18.153629	
11.6800	32.648010	26.833429	31.772809	-88.344866	830.888997	-35.302497	12.335818	34.235288	24.987770	45.000000	-45.000000	-3689.333709	-2626.181434	159.252841	24.128015	1799.125506	159.038292	12.793668	15.139882	-7.989028	-45.000000	-38.624793	45.000000	-45.000000	-4933.771543	-642.001895	24.365328	22.699171	1069.951859	39.332889	13.706167	-18.312031	
